<svg id="Layer_1" data-name="Layer 1" xmlns="http://www.w3.org/2000/svg" viewBox="0 0 512 512"><defs><style>.cls-1{fill:#28aae1;}.cls-2{fill:#fff;}.cls-3{fill:#1c1259;}</style></defs><rect class="cls-1" y="256" width="512" height="256"/><path class="cls-2" d="M202.27,397.3c5.22-6.71,15-8.21,21.59-2.69,8.22,6.95,21.28,13.56,32.74,13.17,7,0,16.07-2.61,20-5.59,3.36-2.56,5.26-6.69,5.28-8.82,0-1.51-.1-3.62-4.69-6.46-8.8-5.43-23.79-8.2-23.79-8.2A114.1,114.1,0,0,1,227.73,371a49.06,49.06,0,0,1-20.26-17,35.69,35.69,0,0,1-5-18.49c0-13.51,7.7-25,17.34-32.3a63.13,63.13,0,0,1,36.12-10.87c20.25,0,34.66,9.69,44,16.15a16.22,16.22,0,0,1,4.7,21.74c-4.78,7.11-15,8.83-21.53,4.23s-17.8-11-27.21-11a30,30,0,0,0-17.61,5.28c-3.82,2.57-4.68,5.23-4.7,6.77s.65,3.28,3.82,5.28c10.23,6.46,32.56,7.8,49.33,15.87,10.37,5,15.82,9.58,20.84,17.33a38,38,0,0,1,5.62,19.52,42.4,42.4,0,0,1-18.51,34.07,66.7,66.7,0,0,1-38.18,11.74C233.65,439,216,428.45,204.27,419a15.69,15.69,0,0,1-2.05-21.74"/><rect class="cls-3" y="1" width="512" height="255"/><path class="cls-2" d="M353.19,96S307.76,202.59,305,209.07a15.37,15.37,0,0,1-14.25,9.26,14.57,14.57,0,0,1-13.77-9.26c-2.82-6.53-21.38-50.35-21.38-50.35s-17.95,43.82-20.67,50.35a15,15,0,0,1-14,9.26,15.39,15.39,0,0,1-14.26-9.26C203.85,202.54,158.9,96,158.9,96a15,15,0,0,1,7.72-19.83c.28-.13.56-.24.85-.35a14.51,14.51,0,0,1,18.91,8,8.46,8.46,0,0,1,.31.84L221.13,163l20.51-48.71A15.21,15.21,0,0,1,255.89,105a15,15,0,0,1,14.23,9.28L290.78,163l34.36-78.37a14.64,14.64,0,0,1,18.55-9.19c.35.12.7.25,1,.39A15.67,15.67,0,0,1,353.29,96"/></svg>